<svg id="Component_29_2" data-name="Component 29 – 2" xmlns="http://www.w3.org/2000/svg" xmlns:xlink="http://www.w3.org/1999/xlink" width="512" height="512" viewBox="0 0 512 512">
  <defs>
    <filter id="CP" x="17" y="48.244" width="452" height="416" filterUnits="userSpaceOnUse">
      <feOffset dx="10" dy="3" input="SourceAlpha"/>
      <feGaussianBlur stdDeviation="3" result="blur"/>
      <feFlood flood-opacity="0.161"/>
      <feComposite operator="in" in2="blur"/>
      <feComposite in="SourceGraphic"/>
    </filter>
  </defs>
  <path id="Path_404" data-name="Path 404" d="M64,0H448a64,64,0,0,1,64,64V448a64,64,0,0,1-64,64H64A64,64,0,0,1,0,448V64A64,64,0,0,1,64,0Z" fill="#fff"/>
  <g id="new-logo" transform="translate(17 54.244)">
    <g id="Group_161" data-name="Group 161" transform="translate(72 -158)">
      <g id="Group_165" data-name="Group 165" transform="translate(-5 242)">
        <g transform="matrix(1, 0, 0, 1, -84, -138.24)" filter="url(#CP)">
          <text id="CP-2" data-name="CP" transform="translate(17 363.24)" fill="#2c54dd" font-size="315" font-family="Chalkduster" letter-spacing="-0.15em"><tspan x="0" y="0">CP</tspan></text>
        </g>
      </g>
      <g id="Group_166" data-name="Group 166" transform="translate(247.581 170.964)">
        <g id="piggy-bank-save-svgrepo-com" transform="translate(0 0)" style="isolation: isolate">
          <g id="Group_117" data-name="Group 117" transform="translate(78.808 249.488)">
            <g id="Group_116" data-name="Group 116">
              <path id="Path_290" data-name="Path 290" d="M182.871,0h-.2c-17,.057-30.743,14.41-30.688,32.058s13.883,31.909,30.886,31.852h.2c17-.057,30.743-14.41,30.688-32.058S199.875-.057,182.871,0ZM200.8,50.385a24.477,24.477,0,0,1-30.286,4.209,26.525,26.525,0,0,1-11.866-29.227A25.359,25.359,0,0,1,182.7,5.81h.163A25.248,25.248,0,0,1,206.1,21.915a26.933,26.933,0,0,1-5.306,28.47Z" transform="translate(-151.985 0)" fill="#2c54dd" stroke="#2c54dd" stroke-width="5"/>
            </g>
          </g>
          <g id="Group_119" data-name="Group 119" transform="translate(100.009 261.108)">
            <g id="Group_118" data-name="Group 118" transform="translate(0 0)">
              <path id="Path_291" data-name="Path 291" d="M227.242,49.393l-2.728.037h0a2.959,2.959,0,0,1-.1-5.825h.106a.309.309,0,0,0,.177-.037l8.12-.059a2.732,2.732,0,0,0,2.5-1.385,2.955,2.955,0,0,0,0-2.944,2.732,2.732,0,0,0-2.5-1.385H227.3V35.486c0-1.6-1.261-3.486-2.834-3.486h0c-1.545,0-2.792,1.9-2.785,3.508v2.523a8.935,8.935,0,0,0-5.453,9.823,8.665,8.665,0,0,0,8.287,7.386h2.834a2.881,2.881,0,0,1,0,5.758l-8.326.052a2.907,2.907,0,0,0,0,5.81h2.657v2.361a3.421,3.421,0,0,0,2.834,3.464h0a3.4,3.4,0,0,0,2.778-3.479V66.874h.071a8.752,8.752,0,0,0-.106-17.467Z" transform="translate(-216.104 -32)" fill="#2c54dd" stroke="#2c54dd" stroke-width="5"/>
            </g>
          </g>
          <g id="Group_123" data-name="Group 123" transform="translate(22.451 346.034)">
            <g id="Group_122" data-name="Group 122" transform="translate(0 0)">
              <path id="Path_293" data-name="Path 293" d="M142.59,405.6a2.7,2.7,0,0,0-2.14.154,2.869,2.869,0,0,0-1.4,1.685L134.725,420.9a2.845,2.845,0,0,1-2.657,1.986h-8.389a2.8,2.8,0,0,1-2.189-1.132,3.028,3.028,0,0,1-.525-2.479l3.854-16.018a2.935,2.935,0,0,0-2.138-3.117,2.809,2.809,0,0,0-3.3,1.712l-3.855,16.018a8.973,8.973,0,0,0,1.526,7.481,8.289,8.289,0,0,0,6.622,3.352h8.389a8.416,8.416,0,0,0,7.964-5.957l4.322-13.458A2.969,2.969,0,0,0,142.59,405.6Z" transform="translate(-115.278 -400.051)" fill="#2c54dd" stroke="#2c54dd" stroke-width="5"/>
            </g>
          </g>
          <g id="Group_125" data-name="Group 125" transform="translate(68.641 345.324)">
            <g id="Group_124" data-name="Group 124" transform="translate(0 0)">
              <path id="Path_294" data-name="Path 294" d="M291.043,415.627l-3.862-15.679a2.808,2.808,0,0,0-3.327-1.7,2.938,2.938,0,0,0-2.1,3.172l3.855,15.665a4.469,4.469,0,0,1-.85,3.5,2.543,2.543,0,0,1-1.864,1.14H274.5c-.758,0-2.126-1.346-2.657-3.045l-4.322-13.113a2.9,2.9,0,0,0-2.1-2.338,2.777,2.777,0,0,0-2.915,1.036,3.033,3.033,0,0,0-.282,3.185l4.315,13.091a9.408,9.408,0,0,0,7.964,6.994h8.389a7.943,7.943,0,0,0,6.278-3.376,10.439,10.439,0,0,0,1.87-8.532Z" transform="translate(-261.901 -398.151)" fill="#2c54dd" stroke="#2c54dd" stroke-width="5"/>
            </g>
          </g>
          <g id="Group_127" data-name="Group 127" transform="translate(52.388 353.418)">
            <g id="Group_126" data-name="Group 126" transform="translate(0 0)">
              <path id="Path_295" data-name="Path 295" d="M219.126,421.752a81.178,81.178,0,0,1-8.141,0,2.769,2.769,0,0,0-2.543,1.317,3,3,0,0,0-.122,2.947,2.789,2.789,0,0,0,2.424,1.539q1.941.087,3.94.088,2.381,0,4.712-.11a2.805,2.805,0,0,0,2.762-1.44,3.034,3.034,0,0,0-.149-3.2,2.784,2.784,0,0,0-2.882-1.158Z" transform="translate(-207.99 -421.666)" fill="#2c54dd" stroke="#2c54dd" stroke-width="5"/>
            </g>
          </g>
          <g id="Group_129" data-name="Group 129" transform="translate(0 267.898)">
            <g id="Group_128" data-name="Group 128">
              <path id="Path_296" data-name="Path 296" d="M121.662,185.381a91.584,91.584,0,0,0-16.793-1.471,98.165,98.165,0,0,0-19.408,1.831l-11.287-9.877a8.12,8.12,0,0,0-11.337.5l-3.068,3.184a8.826,8.826,0,0,0-2.459,6.163,2.7,2.7,0,0,0,0,.426l1.913,13.341a36.719,36.719,0,0,0-9.587,12.877h-.758A9,9,0,0,0,40,221.035v12.694a9.1,9.1,0,0,0,3.642,6.994,4.521,4.521,0,0,0,.439.206L57.6,248.673a41.728,41.728,0,0,0,5.669,6.472,2.76,2.76,0,0,0,3.707-.438,3.026,3.026,0,0,0,.077-3.871,35.5,35.5,0,0,1-5.173-6.045,2.875,2.875,0,0,0-.935-.875l-14.065-7.95a3.23,3.23,0,0,1-1.261-2.206V221.035a3.314,3.314,0,0,1,3.3-2.942h2.636a2.84,2.84,0,0,0,2.629-1.9,30.644,30.644,0,0,1,9.679-13.135,2.99,2.99,0,0,0,1.183-2.824l-2.126-14.775a2.941,2.941,0,0,1,.815-1.875l3.075-3.184a2.7,2.7,0,0,1,3.784-.169l11.67,10.223a2.739,2.739,0,0,0,2.905,1.213,91.173,91.173,0,0,1,19.726-2.015,86.186,86.186,0,0,1,15.8,1.412,2.863,2.863,0,0,0,2.85-2.424,2.956,2.956,0,0,0-1.865-3.3Z" transform="translate(-40 -173.797)" fill="#2c54dd" stroke="#2c54dd" stroke-width="5"/>
            </g>
          </g>
          <g id="Group_131" data-name="Group 131" transform="translate(92.659 305.134)">
            <g id="Group_130" data-name="Group 130" transform="translate(0)">
              <path id="Path_297" data-name="Path 297" d="M374.36,280a2.892,2.892,0,0,0-2.8,2.942v5.81a8.567,8.567,0,0,1-8.4,8.715h-2.558c.071-.986.149-1.956.149-2.942a2.987,2.987,0,0,0-1.254-2.93,2.748,2.748,0,0,0-3.089,0,2.987,2.987,0,0,0-1.255,2.93,30.915,30.915,0,0,1-10.862,24,2.963,2.963,0,0,0-1.022,2.773,2.877,2.877,0,0,0,1.859,2.256,2.723,2.723,0,0,0,2.8-.617A37.106,37.106,0,0,0,359.757,303.3h3.415a14.281,14.281,0,0,0,13.994-14.525v-5.81A2.892,2.892,0,0,0,374.36,280Z" transform="translate(-343.233 -280)" fill="#2c54dd" stroke="#2c54dd" stroke-width="5"/>
            </g>
          </g>
          <g id="Group_133" data-name="Group 133" transform="translate(49.635 291.521)">
            <g id="Group_132" data-name="Group 132" transform="translate(0 0)">
              <path id="Path_298" data-name="Path 298" d="M218.637,232.032H204.643a2.794,2.794,0,0,0-2.823,1.3,3.036,3.036,0,0,0,0,3.206,2.8,2.8,0,0,0,2.823,1.3h13.994a2.961,2.961,0,0,0,0-5.81Z" transform="translate(-201.362 -231.995)" fill="#2c54dd" stroke="#2c54dd" stroke-width="5"/>
            </g>
          </g>
          <g id="Group_135" data-name="Group 135" transform="translate(41.981)">
            <g id="Group_134" data-name="Group 134">
              <path id="Path_299" data-name="Path 299" d="M322.815,178.872c-14.982,0-27.127,12.606-27.127,28.156s12.145,28.156,27.127,28.156,27.127-12.606,27.127-28.156c-.015-15.544-12.151-28.14-27.127-28.156Zm0,48.82c-11,0-19.909-9.252-19.909-20.664s8.913-20.664,19.909-20.664,19.909,9.252,19.909,20.664-8.925,20.654-19.918,20.664Z" transform="translate(-295.688 -178.872)" fill="#2c54dd" stroke="#2c54dd" stroke-width="5"/>
            </g>
          </g>
          <g id="Group_137" data-name="Group 137" transform="translate(54.866 17.416)">
            <g id="Group_136" data-name="Group 136">
              <path id="Path_300" data-name="Path 300" d="M354.7,216.508a4.211,4.211,0,0,0-5.392,1.191l-7.339,10.974-5.492-4.611a4.2,4.2,0,0,0-4.093-1.259,3.771,3.771,0,0,0-2.936,2.882,3.478,3.478,0,0,0,1.7,3.612l9.007,7.571a4.2,4.2,0,0,0,2.672.947,3.658,3.658,0,0,0,3.356-1.678l9.831-14.7a3.425,3.425,0,0,0-1.311-4.927Z" transform="translate(-329.388 -216.004)" fill="#2c54dd" stroke="#2c54dd" stroke-width="5"/>
            </g>
          </g>
          <g id="Group_155" data-name="Group 155" transform="translate(24.453 304.038)">
            <g id="Group_154" data-name="Group 154" transform="translate(0 0)">
              <ellipse id="Ellipse_79" data-name="Ellipse 79" cx="4.592" cy="4.766" rx="4.592" ry="4.766" fill="#2c54dd" stroke="#2c54dd" stroke-width="5"/>
            </g>
          </g>
        </g>
      </g>
    </g>
  </g>
</svg>
