<svg width="512" height="512" viewBox="0 0 512 512" fill="none" xmlns="http://www.w3.org/2000/svg">
<circle cx="256" cy="256" r="256" fill="#6180E8"/>
<g filter="url(#filter0_d)">
<line x1="334.5" y1="311.9" x2="412.3" y2="311.9" stroke="#232840" stroke-width="5" stroke-linecap="round" stroke-linejoin="round"/>
<mask id="path-4-inside-1" fill="white">
<rect x="332" y="296" width="82.8" height="55.2" rx="3"/>
</mask>
<rect x="332" y="296" width="82.8" height="55.2" rx="3" stroke="#232840" stroke-width="10" stroke-linecap="round" stroke-linejoin="round" mask="url(#path-4-inside-1)"/>
<g filter="url(#filter1_d)">
<path d="M345.8 348.9L351.896 369.219C352.348 370.729 353.892 371.631 355.43 371.284L420.968 356.485C422.625 356.111 423.641 354.437 423.209 352.795L412.5 312.1" stroke="#232840" stroke-width="4" stroke-linecap="round" stroke-linejoin="round"/>
</g>
<line x1="343.7" y1="330.3" x2="366.3" y2="330.3" stroke="#232840" stroke-width="5" stroke-linecap="round" stroke-linejoin="round"/>
</g>
<g filter="url(#filter2_d)">
<path d="M112 280H180" stroke="#232840" stroke-width="10" stroke-linecap="round"/>
</g>
<g filter="url(#filter3_d)">
<path d="M112 228H180" stroke="#232840" stroke-width="10" stroke-linecap="round"/>
</g>
<g filter="url(#filter4_d)">
<mask id="path-9-inside-2" fill="white">
<path d="M252.001 154.026C252 152.921 251.105 152.025 250 152.04C233.872 152.26 217.931 155.097 203.018 160.409C187.49 165.94 173.381 174.046 161.497 184.262C149.613 194.479 140.187 206.608 133.757 219.955C127.327 233.302 124.019 247.606 124.022 262.052C124.025 276.497 127.339 290.8 133.774 304.145C140.21 317.489 149.641 329.614 161.529 339.826C173.416 350.038 187.529 358.138 203.06 363.663C217.974 368.968 233.916 371.8 250.045 372.013C251.149 372.027 252.045 371.13 252.044 370.026L252.042 360.345C252.042 359.241 251.146 358.347 250.042 358.33C236.004 358.118 222.132 355.641 209.149 351.022C195.55 346.184 183.193 339.092 172.783 330.15C162.374 321.208 154.116 310.592 148.481 298.907C142.846 287.222 139.944 274.697 139.942 262.049C139.939 249.4 142.836 236.874 148.466 225.187C154.096 213.5 162.35 202.88 172.756 193.934C183.161 184.988 195.516 177.89 209.113 173.047C222.094 168.423 235.965 165.94 250.003 165.722C251.107 165.705 252.003 164.811 252.002 163.706L252.001 154.026Z"/>
</mask>
<path d="M252.001 154.026C252 152.921 251.105 152.025 250 152.04C233.872 152.26 217.931 155.097 203.018 160.409C187.49 165.94 173.381 174.046 161.497 184.262C149.613 194.479 140.187 206.608 133.757 219.955C127.327 233.302 124.019 247.606 124.022 262.052C124.025 276.497 127.339 290.8 133.774 304.145C140.21 317.489 149.641 329.614 161.529 339.826C173.416 350.038 187.529 358.138 203.06 363.663C217.974 368.968 233.916 371.8 250.045 372.013C251.149 372.027 252.045 371.13 252.044 370.026L252.042 360.345C252.042 359.241 251.146 358.347 250.042 358.33C236.004 358.118 222.132 355.641 209.149 351.022C195.55 346.184 183.193 339.092 172.783 330.15C162.374 321.208 154.116 310.592 148.481 298.907C142.846 287.222 139.944 274.697 139.942 262.049C139.939 249.4 142.836 236.874 148.466 225.187C154.096 213.5 162.35 202.88 172.756 193.934C183.161 184.988 195.516 177.89 209.113 173.047C222.094 168.423 235.965 165.94 250.003 165.722C251.107 165.705 252.003 164.811 252.002 163.706L252.001 154.026Z" stroke="#232840" stroke-width="30" stroke-linecap="round" stroke-linejoin="round" mask="url(#path-9-inside-2)"/>
</g>
<g filter="url(#filter5_d)">
<path d="M260.5 368C260.5 372.142 263.858 375.5 268 375.5C272.142 375.5 275.5 372.142 275.5 368H260.5ZM367.905 219.448L360.414 219.094L367.905 219.448ZM367.464 223.651L374.535 226.152L367.464 223.651ZM269.982 167.503C296.278 167.576 319.865 169.227 336.471 176.692C344.566 180.331 350.651 185.208 354.654 191.697C358.657 198.187 360.988 206.957 360.414 219.094L375.397 219.803C376.08 205.368 373.351 193.438 367.421 183.823C361.489 174.207 352.766 167.571 342.621 163.011C322.746 154.076 296.126 152.576 270.024 152.503L269.982 167.503ZM275.5 368V264H260.5V368H275.5ZM275.5 264V162H260.5V264H275.5ZM360.393 221.151C359.155 224.652 352.934 236.369 338.768 245.761C324.877 254.972 302.841 262.278 269.249 256.605L266.751 271.395C303.809 277.654 329.755 269.735 347.058 258.263C364.087 246.972 372.273 232.548 374.535 226.152L360.393 221.151ZM360.414 219.094C360.398 219.427 360.384 219.88 360.373 220.157C360.36 220.492 360.347 220.779 360.328 221.038C360.309 221.302 360.29 221.463 360.278 221.542C360.26 221.653 360.276 221.48 360.393 221.151L374.535 226.152C375.092 224.577 375.231 222.937 375.29 222.111C375.351 221.257 375.386 220.036 375.397 219.803L360.414 219.094ZM270.024 152.503C264.772 152.488 260.5 156.743 260.5 162H275.5C275.5 165.048 273.026 167.511 269.982 167.503L270.024 152.503Z" fill="#232840"/>
</g>
<defs>
<filter id="filter0_d" x="330" y="296" width="97.3091" height="85.3582" filterUnits="userSpaceOnUse" color-interpolation-filters="sRGB">
<feFlood flood-opacity="0" result="BackgroundImageFix"/>
<feColorMatrix in="SourceAlpha" type="matrix" values="0 0 0 0 0 0 0 0 0 0 0 0 0 0 0 0 0 0 127 0"/>
<feOffset dy="6"/>
<feGaussianBlur stdDeviation="1"/>
<feColorMatrix type="matrix" values="0 0 0 0 0 0 0 0 0 0 0 0 0 0 0 0 0 0 0.25 0"/>
<feBlend mode="normal" in2="BackgroundImageFix" result="effect1_dropShadow"/>
<feBlend mode="normal" in="SourceGraphic" in2="effect1_dropShadow" result="shape"/>
</filter>
<filter id="filter1_d" x="339.799" y="310.1" width="89.5098" height="71.2586" filterUnits="userSpaceOnUse" color-interpolation-filters="sRGB">
<feFlood flood-opacity="0" result="BackgroundImageFix"/>
<feColorMatrix in="SourceAlpha" type="matrix" values="0 0 0 0 0 0 0 0 0 0 0 0 0 0 0 0 0 0 127 0"/>
<feOffset dy="4"/>
<feGaussianBlur stdDeviation="2"/>
<feColorMatrix type="matrix" values="0 0 0 0 0 0 0 0 0 0 0 0 0 0 0 0 0 0 0.25 0"/>
<feBlend mode="normal" in2="BackgroundImageFix" result="effect1_dropShadow"/>
<feBlend mode="normal" in="SourceGraphic" in2="effect1_dropShadow" result="shape"/>
</filter>
<filter id="filter2_d" x="105" y="275" width="82" height="18" filterUnits="userSpaceOnUse" color-interpolation-filters="sRGB">
<feFlood flood-opacity="0" result="BackgroundImageFix"/>
<feColorMatrix in="SourceAlpha" type="matrix" values="0 0 0 0 0 0 0 0 0 0 0 0 0 0 0 0 0 0 127 0"/>
<feOffset dy="6"/>
<feGaussianBlur stdDeviation="1"/>
<feColorMatrix type="matrix" values="0 0 0 0 0 0 0 0 0 0 0 0 0 0 0 0 0 0 0.25 0"/>
<feBlend mode="normal" in2="BackgroundImageFix" result="effect1_dropShadow"/>
<feBlend mode="normal" in="SourceGraphic" in2="effect1_dropShadow" result="shape"/>
</filter>
<filter id="filter3_d" x="105" y="223" width="82" height="18" filterUnits="userSpaceOnUse" color-interpolation-filters="sRGB">
<feFlood flood-opacity="0" result="BackgroundImageFix"/>
<feColorMatrix in="SourceAlpha" type="matrix" values="0 0 0 0 0 0 0 0 0 0 0 0 0 0 0 0 0 0 127 0"/>
<feOffset dy="6"/>
<feGaussianBlur stdDeviation="1"/>
<feColorMatrix type="matrix" values="0 0 0 0 0 0 0 0 0 0 0 0 0 0 0 0 0 0 0.25 0"/>
<feBlend mode="normal" in2="BackgroundImageFix" result="effect1_dropShadow"/>
<feBlend mode="normal" in="SourceGraphic" in2="effect1_dropShadow" result="shape"/>
</filter>
<filter id="filter4_d" x="122" y="152.039" width="132.045" height="227.999" filterUnits="userSpaceOnUse" color-interpolation-filters="sRGB">
<feFlood flood-opacity="0" result="BackgroundImageFix"/>
<feColorMatrix in="SourceAlpha" type="matrix" values="0 0 0 0 0 0 0 0 0 0 0 0 0 0 0 0 0 0 127 0"/>
<feOffset dy="6"/>
<feGaussianBlur stdDeviation="1"/>
<feColorMatrix type="matrix" values="0 0 0 0 0 0 0 0 0 0 0 0 0 0 0 0 0 0 0.25 0"/>
<feBlend mode="normal" in2="BackgroundImageFix" result="effect1_dropShadow"/>
<feBlend mode="normal" in="SourceGraphic" in2="effect1_dropShadow" result="shape"/>
</filter>
<filter id="filter5_d" x="258.5" y="152.503" width="119" height="230.997" filterUnits="userSpaceOnUse" color-interpolation-filters="sRGB">
<feFlood flood-opacity="0" result="BackgroundImageFix"/>
<feColorMatrix in="SourceAlpha" type="matrix" values="0 0 0 0 0 0 0 0 0 0 0 0 0 0 0 0 0 0 127 0"/>
<feOffset dy="6"/>
<feGaussianBlur stdDeviation="1"/>
<feColorMatrix type="matrix" values="0 0 0 0 0 0 0 0 0 0 0 0 0 0 0 0 0 0 0.25 0"/>
<feBlend mode="normal" in2="BackgroundImageFix" result="effect1_dropShadow"/>
<feBlend mode="normal" in="SourceGraphic" in2="effect1_dropShadow" result="shape"/>
</filter>
</defs>
</svg>
