<svg width="97" height="97" viewBox="0 0 97 97" fill="none" xmlns="http://www.w3.org/2000/svg">
<mask id="mask0" mask-type="alpha" maskUnits="userSpaceOnUse" x="0" y="0" width="97" height="97">
<path d="M39.0702 53.2576C38.9522 52.3711 38.1308 51.7466 37.2513 51.8726C36.3668 51.9907 35.7476 52.8062 35.8672 53.6927C37.5762 66.3084 33.0264 79.0537 23.6989 87.785C23.0473 88.3949 23.0134 89.419 23.6245 90.0726C23.9415 90.4123 24.3714 90.5837 24.8047 90.5837C25.2009 90.5837 25.5969 90.4398 25.9089 90.1469C35.9998 80.7006 40.9198 66.9104 39.0702 53.2576Z" fill="white"/>
<path d="M15.6409 55.1472C15.6248 55.0712 15.6038 54.9984 15.5778 54.9256C15.2512 53.2462 15.0524 51.5395 14.9812 49.8473C14.9455 48.9543 14.1825 48.2667 13.2996 48.2974C12.4072 48.333 11.7135 49.0868 11.7507 49.98C11.8316 51.9181 12.0677 53.8724 12.4523 55.7912C12.4669 55.8657 12.4879 55.9385 12.5137 56.0096C13.5679 61.6542 11.5144 67.446 7.11998 71.1702C6.43921 71.7494 6.35357 72.7702 6.93089 73.4514C7.25261 73.83 7.70696 74.0241 8.16605 74.0241C8.53628 74.0241 8.90651 73.8978 9.21061 73.639C14.5607 69.1041 17.0248 62.0181 15.6409 55.1472Z" fill="white"/>
<path d="M24.7291 68.0315C23.8964 67.7078 22.9587 68.1204 22.6353 68.9536C20.902 73.4205 18.029 77.384 14.3296 80.4159C13.6391 80.9805 13.5374 82.0014 14.1032 82.6921C14.4234 83.0821 14.8874 83.2842 15.3546 83.2842C15.7152 83.2842 16.079 83.1646 16.3797 82.9185C20.5075 79.534 23.7135 75.1109 25.6505 70.1247C25.9739 69.2934 25.5601 68.3549 24.7291 68.0315Z" fill="white"/>
<path d="M9.70059 22.1775C9.98839 22.3878 10.3215 22.4898 10.6529 22.4898C11.1508 22.4898 11.6423 22.26 11.9593 21.8249C18.6401 12.6665 28.4395 6.3892 39.5536 4.14694C49.4146 2.15532 59.3903 3.44319 68.3978 7.86799C69.2013 8.26442 70.1699 7.92941 70.5612 7.12859C70.9557 6.32626 70.6243 5.35708 69.8222 4.96388C60.1715 0.222089 49.4826 -1.15622 38.915 0.974374C27.0054 3.37684 16.5058 10.1038 9.34817 19.9174C8.82106 20.639 8.97946 21.6518 9.70059 22.1775Z" fill="white"/>
<path d="M4.17597 57.4653C4.16782 57.4265 4.14205 57.3975 4.13068 57.3586C2.11774 47.2505 3.52608 37.0711 8.21153 27.9127C8.61889 27.1183 8.30531 26.1429 7.50991 25.7351C6.71451 25.3258 5.74119 25.643 5.33364 26.4388C0.29388 36.2864 -1.21299 47.2376 0.977873 58.1061C0.990757 58.166 1.02467 58.2146 1.04248 58.2711C1.17341 58.9102 1.31248 59.5426 1.46614 60.1704C1.64879 60.9081 2.30853 61.3998 3.0361 61.3998C3.16381 61.3998 3.29322 61.3852 3.42414 61.3545C4.29079 61.1394 4.82112 60.2625 4.60758 59.3953C4.4507 58.7596 4.30519 58.1158 4.17597 57.4653Z" fill="white"/>
<path d="M41.2272 12.4559C26.2473 15.478 14.8762 27.1636 12.2585 42.2254C12.1065 43.1055 12.695 43.9435 13.5745 44.0972C14.4654 44.2493 15.2915 43.6587 15.4452 42.7803C17.8316 29.0418 28.2036 18.3853 41.8674 15.6268C59.9953 11.9753 77.7124 23.7514 81.3649 41.8872C81.3745 41.939 81.3874 41.9875 81.402 42.036C81.6947 43.5034 81.9469 44.9563 82.1521 46.3573C82.2702 47.1614 82.9606 47.7388 83.7495 47.7388C83.8288 47.7388 83.908 47.7339 83.9871 47.721C84.8699 47.5915 85.4811 46.7697 85.3517 45.8864C85.1317 44.3835 84.8585 42.8238 84.5432 41.2496C84.5319 41.1979 84.519 41.1444 84.5029 41.0943C80.4287 21.2958 61.0478 8.45845 41.2272 12.4559Z" fill="white"/>
<path d="M61.5878 45.8769C60.8828 42.3775 58.8586 39.3619 55.8868 37.3866C52.9151 35.4096 49.3515 34.714 45.856 35.416C40.6061 36.4756 36.5091 40.5478 35.4161 45.791C35.2334 46.6664 35.7944 47.5237 36.6675 47.7064C37.5455 47.8877 38.3991 47.3278 38.5818 46.4527C39.4096 42.4778 42.5156 39.3909 46.4945 38.5884C49.1461 38.0562 51.8446 38.5835 54.0968 40.0801C56.2957 41.5426 57.8092 43.7558 58.3766 46.3281C58.3831 46.3928 58.3912 46.4576 58.4041 46.5223C59.2238 50.5814 59.6442 54.7246 59.6556 58.8354C59.6588 59.7284 60.3814 60.45 61.2723 60.45H61.2756C62.1697 60.4483 62.8923 59.722 62.8891 58.829C62.8777 54.5741 62.4493 50.2869 61.6151 46.0855C61.6103 46.0161 61.6007 45.9465 61.5878 45.8769Z" fill="white"/>
<path d="M50.0905 48.1984C49.9142 47.3231 49.0622 46.7602 48.1859 46.9316C47.3111 47.1079 46.7436 47.9622 46.9198 48.8373C50.1018 64.6289 45.8236 80.6339 35.1834 92.7514C34.5949 93.4228 34.6612 94.4452 35.3304 95.0358C35.6376 95.3044 36.0192 95.437 36.3975 95.437C36.847 95.437 37.2932 95.2525 37.6134 94.8885C48.9248 82.0044 53.4729 64.9881 50.0905 48.1984Z" fill="white"/>
<path d="M96.0343 38.9283C96.0247 38.8798 95.9923 38.8426 95.9777 38.7941C93.4878 26.6102 86.521 15.9682 76.3446 8.82229C75.6138 8.30623 74.6034 8.48577 74.0924 9.21701C73.5799 9.94826 73.7561 10.9578 74.4869 11.4706C84.0197 18.1652 90.537 28.1455 92.8395 39.5722C92.8476 39.6158 92.8734 39.6499 92.8848 39.6918C93.525 42.9112 93.8192 46.1873 93.7578 49.4326C93.7417 50.3256 94.4515 51.0635 95.3439 51.0811H95.3763C96.2543 51.0811 96.9753 50.3756 96.9915 49.4941C97.0577 45.9708 96.736 42.4181 96.0343 38.9283Z" fill="white"/>
<path d="M73.0624 43.5635C71.7399 36.9952 67.9402 31.3377 62.3639 27.6312C56.7875 23.9233 50.1035 22.6144 43.5408 23.9362C29.9951 26.6687 21.1947 39.9219 23.9271 53.4759C23.9464 53.5713 23.9739 53.6619 24.008 53.7493C24.5269 56.4526 24.6418 59.1933 24.3492 61.9014C24.2539 62.7896 24.8956 63.5872 25.785 63.6843C26.6532 63.7717 27.4698 63.1375 27.5651 62.2476C27.9014 59.1154 27.7527 55.9477 27.1236 52.8302C27.1043 52.7363 27.0768 52.6457 27.0427 52.56C24.8373 40.8503 32.4736 29.4704 44.1795 27.1085C49.8949 25.9551 55.7187 27.0972 60.5741 30.3264C65.4021 33.5362 68.7004 38.4252 69.8724 44.1021C69.8774 44.136 69.8821 44.1717 69.8885 44.2056C71.6864 53.1181 71.8547 62.152 70.3897 71.0517C70.2457 71.9349 70.8424 72.7665 71.7236 72.9121C71.8125 72.925 71.8998 72.9331 71.9871 72.9331C72.7647 72.9331 73.4504 72.3701 73.5814 71.5774C75.1028 62.3234 74.9346 52.9352 73.0802 43.67C73.0753 43.6348 73.0705 43.5991 73.0624 43.5635Z" fill="white"/>
<path d="M84.4303 51.8903C83.5394 51.9469 82.8621 52.7153 82.9185 53.6068C83.5023 62.8818 82.5854 72.1421 80.1926 81.1291C79.963 81.9913 80.4755 82.878 81.3389 83.1076C81.478 83.1448 81.6186 83.1643 81.7561 83.1643C82.4708 83.1643 83.1239 82.6854 83.3179 81.9606C85.8013 72.6356 86.7521 63.0272 86.1458 53.403C86.0908 52.5115 85.3422 51.8338 84.4303 51.8903Z" fill="white"/>
<path d="M70.828 77.0509C69.9598 76.8163 69.0786 77.3307 68.8489 78.1946C67.617 82.7941 65.9369 87.2964 63.8512 91.5773C63.46 92.3813 63.7946 93.3488 64.5966 93.7403C64.8262 93.852 65.0656 93.9037 65.3049 93.9037C65.903 93.9037 66.4786 93.5704 66.7583 92.9945C68.9346 88.5276 70.6872 83.8296 71.9709 79.0311C72.2039 78.1687 71.6914 77.2806 70.828 77.0509Z" fill="white"/>
<path d="M61.0461 64.6598C60.1649 64.5595 59.3566 65.1954 59.2563 66.0834C58.1019 76.1997 54.4383 86.0165 48.6581 94.4697C48.1537 95.2059 48.3413 96.212 49.0785 96.7169C49.3582 96.9093 49.6751 97 49.9904 97C50.5062 97 51.014 96.7541 51.326 96.2962C57.4037 87.4094 61.2566 77.0894 62.4692 66.4507C62.5693 65.5626 61.9321 64.7601 61.0461 64.6598Z" fill="white"/>
</mask>
<g mask="url(#mask0)">
<g filter="url(#filter0_d)">
<circle cx="48.5" cy="48.5" r="53.5" fill="#009CDE"/>
<circle cx="48.5" cy="48.5" r="53.5" fill="url(#paint0_linear)"/>
</g>
</g>
<defs>
<filter id="filter0_d" x="-25" y="-18" width="147" height="147" filterUnits="userSpaceOnUse" color-interpolation-filters="sRGB">
<feFlood flood-opacity="0" result="BackgroundImageFix"/>
<feColorMatrix in="SourceAlpha" type="matrix" values="0 0 0 0 0 0 0 0 0 0 0 0 0 0 0 0 0 0 127 0"/>
<feOffset dy="7"/>
<feGaussianBlur stdDeviation="10"/>
<feColorMatrix type="matrix" values="0 0 0 0 0 0 0 0 0 0 0 0 0 0 0 0 0 0 0.25 0"/>
<feBlend mode="normal" in2="BackgroundImageFix" result="effect1_dropShadow"/>
<feBlend mode="normal" in="SourceGraphic" in2="effect1_dropShadow" result="shape"/>
</filter>
<linearGradient id="paint0_linear" x1="100.632" y1="-5.09835" x2="-27.2933" y2="44.495" gradientUnits="userSpaceOnUse">
<stop stop-color="#2F80ED"/>
<stop offset="1" stop-color="#BB6BD9"/>
</linearGradient>
</defs>
</svg>
