<svg width="225" height="226" viewBox="0 0 225 226" fill="none" xmlns="http://www.w3.org/2000/svg">
<circle cx="121.5" cy="121.5" r="59.5" fill="#009CDE"/>
<circle cx="121.5" cy="121.5" r="59.5" fill="url(#paint0_linear)"/>
<rect x="10" y="59" width="19" height="34" fill="#009CDE"/>
<rect x="10" y="59" width="19" height="34" fill="url(#paint1_linear)"/>
<rect x="10" y="151" width="19" height="34" fill="#009CDE"/>
<rect x="10" y="151" width="19" height="34" fill="url(#paint2_linear)"/>
<path d="M15.7873 0H209.213C209.388 0.128184 209.583 0.226966 209.79 0.292497C218.582 1.45145 225.005 8.8577 225 18.4604C225 81.5185 225 144.575 225 207.629C225 218.413 217.45 225.979 206.702 225.985C143.915 226.018 81.1306 225.997 18.3479 225.924C15.4261 225.907 12.5419 225.26 9.89108 224.025C2.85193 220.67 0 214.594 0 206.956C0 160.907 0 114.852 0 68.7921C0 52.0885 0 35.3867 0 18.6867C0 12.7871 2.0002 7.80361 6.63801 3.96251C9.34157 1.73291 12.5287 0.83886 15.7873 0ZM6.96222 113.042C6.96222 144.315 6.96222 175.589 6.96222 206.862C6.96222 214.792 11.1494 219.047 18.9634 219.047H206.201C213.823 219.047 218.043 214.82 218.043 207.176C218.043 144.42 218.043 81.6638 218.043 18.9075C218.08 17.7989 218.005 16.6894 217.818 15.5962C216.719 10.1988 212.372 7.03649 206.163 7.03649H19.3645C10.9901 7.03097 6.96222 11.0376 6.96222 19.4594C6.96222 50.637 6.96222 81.8312 6.96222 113.042Z" fill="#404B7B"/>
<path d="M24.4914 137.794V88.3341C22.3483 88.3341 20.3207 88.3341 18.2985 88.3341C15.3257 88.2845 14.0233 87.0041 14.0179 83.9798C14.0179 72.7251 14.0343 61.4704 14.0673 50.2157C14.0673 47.3404 15.4081 46.0324 18.2435 45.9662C20.2767 45.9165 22.3154 45.9662 24.6178 45.9662C24.6178 41.082 24.6178 36.4021 24.6178 31.7166C24.6178 30.8336 24.6178 29.9506 24.6178 29.0676C24.6947 26.0874 25.9586 24.8125 28.9809 24.7905C34.1792 24.7574 39.383 24.7905 44.5813 24.7905H194.893C199.476 24.7905 200.388 25.7066 200.388 30.3645C200.388 85.468 200.388 140.57 200.388 195.67C200.388 200.41 199.492 201.304 194.728 201.304H29.4589C25.7663 201.304 24.6233 200.156 24.6233 196.415C24.6233 191.122 24.6233 185.83 24.6233 180.167C22.4253 180.167 20.4306 180.167 18.4139 180.167C15.3092 180.123 14.0179 178.848 14.0179 175.703C14.0179 164.521 14.0435 153.34 14.0948 142.159C14.0948 139.135 15.3916 137.871 18.3919 137.821C20.3317 137.766 22.3154 137.794 24.4914 137.794ZM31.6789 45.9607C33.7396 45.9607 35.6958 45.9607 37.652 45.9607C40.8117 45.9993 42.103 47.2355 42.1085 50.3757C42.1305 61.5568 42.1305 72.738 42.1085 83.9191C42.1085 86.9434 40.8117 88.2072 37.8169 88.2569C35.7947 88.29 33.767 88.2569 31.7119 88.2569V137.573C31.8868 137.657 32.0714 137.718 32.2614 137.755C34.0912 137.755 35.9211 137.755 37.7564 137.799C40.8611 137.855 42.1525 139.124 42.1525 142.275C42.1525 153.383 42.1525 164.49 42.1525 175.598C42.1525 178.843 40.8721 180.057 37.5641 180.085C35.6189 180.085 33.6736 180.085 31.7943 180.085V194.113H193.244V31.9318H31.6899L31.6789 45.9607ZM35.0913 53.091H21.2109V81.1266H35.0913V53.091ZM21.2273 144.863V173.009H34.9979V144.863H21.2273Z" fill="#404B7B"/>
<path d="M49.2411 113.014C49.2411 78.163 77.6889 49.5811 112.434 49.4928C147.179 49.4045 175.841 78.2127 175.841 113.07C175.792 148.059 147.207 176.713 112.429 176.613C77.7439 176.525 49.2301 147.811 49.2411 113.014ZM112.363 148.335C121.701 148.339 130.66 144.623 137.274 138.001C143.888 131.38 147.616 122.393 147.641 113.014C147.734 93.8861 131.782 77.7712 112.742 77.7601C108.098 77.739 103.495 78.6405 99.1995 80.4126C94.9037 82.1848 90.9992 84.7926 87.7107 88.0861C84.4222 91.3795 81.8147 95.2936 80.0382 99.6031C78.2616 103.913 77.3512 108.532 77.3592 113.196C77.2988 132.275 93.2893 148.335 112.363 148.318V148.335ZM85.2281 80.7017C91.9081 75.0704 100.124 71.593 108.802 70.7236V56.612C96.4244 57.4311 84.6711 62.3671 75.3975 70.6409L85.2281 80.7017ZM70.1827 75.7954C61.9401 85.5803 57.1594 96.6069 56.3681 109.411H70.408C71.2298 100.672 74.6514 92.3835 80.2276 85.6245L70.1827 75.7954ZM56.3132 116.635C57.3243 129.56 61.8907 140.686 69.9024 149.902L79.9309 139.968C74.4688 133.346 71.3476 125.443 70.3805 116.629L56.3132 116.635ZM116.088 70.7402C124.656 71.5484 132.79 74.9054 139.448 80.3816L149.339 70.4477C139.832 62.2909 128.875 57.4785 116.066 56.6175L116.088 70.7402ZM145.025 86.0108C150.52 92.6334 153.641 100.597 154.62 109.306H168.56C167.586 96.4947 163.038 85.4184 154.916 76.0769L145.025 86.0108ZM154.85 150.073C162.994 140.393 167.764 129.444 168.511 116.723H154.565C153.769 125.28 150.447 133.403 145.025 140.051L154.85 150.073ZM85.5413 145.62L75.6502 155.609C84.8972 163.754 96.5837 168.572 108.862 169.301V155.322C100.142 154.345 92.2837 151.216 85.5413 145.625V145.62ZM116.116 169.35C128.395 168.587 140.074 163.747 149.317 155.592L139.376 145.658C132.782 151.227 124.847 154.328 116.116 155.322V169.35Z" fill="#404B7B"/>
<path d="M91.399 95.3927C91.8693 95.3763 92.338 95.4555 92.777 95.6254C93.2161 95.7954 93.6164 96.0526 93.9541 96.3818C94.2917 96.7109 94.5598 97.1051 94.742 97.5408C94.9243 97.9764 95.0171 98.4446 95.0149 98.9171C95.0127 99.3897 94.9155 99.8569 94.7291 100.291C94.5427 100.725 94.271 101.116 93.9303 101.442C93.5896 101.768 93.1868 102.022 92.7462 102.187C92.3056 102.353 91.8361 102.428 91.3661 102.407C90.8958 102.423 90.4271 102.344 89.9881 102.174C89.549 102.004 89.1487 101.747 88.811 101.418C88.4734 101.089 88.2053 100.695 88.0231 100.259C87.8408 99.8234 87.748 99.3552 87.7502 98.8827C87.7524 98.4101 87.8496 97.9429 88.036 97.509C88.2224 97.075 88.4941 96.6834 88.8348 96.3575C89.1755 96.0316 89.5783 95.7782 90.0189 95.6124C90.4595 95.4466 90.929 95.3719 91.399 95.3927Z" fill="#404B7B"/>
<path d="M91.3386 123.671C91.7968 123.663 92.2522 123.745 92.6787 123.914C93.1052 124.082 93.4946 124.333 93.8244 124.653C94.1543 124.972 94.4183 125.354 94.6013 125.776C94.7844 126.198 94.8828 126.652 94.8911 127.112C94.8994 127.572 94.8174 128.03 94.6497 128.458C94.482 128.887 94.232 129.278 93.9138 129.609C93.5957 129.94 93.2157 130.205 92.7955 130.389C92.3753 130.573 91.9232 130.672 91.465 130.68C90.5437 130.669 89.6615 130.305 88.9979 129.663C88.3343 129.021 87.9393 128.149 87.8932 127.225C87.8929 126.299 88.2529 125.409 88.8965 124.745C89.54 124.081 90.4163 123.696 91.3386 123.671Z" fill="#404B7B"/>
<path d="M91.421 109.543C92.3414 109.56 93.2186 109.938 93.8654 110.596C94.5122 111.254 94.8773 112.14 94.8829 113.064C94.8807 113.759 94.673 114.438 94.2862 115.014C93.8994 115.591 93.3509 116.039 92.7101 116.302C92.0694 116.565 91.3654 116.631 90.6873 116.491C90.0092 116.352 89.3876 116.014 88.9013 115.519C88.415 115.024 88.0858 114.396 87.9556 113.713C87.8254 113.03 87.9 112.324 88.1699 111.684C88.4398 111.044 88.8928 110.499 89.4716 110.118C90.0504 109.736 90.7289 109.536 91.421 109.543Z" fill="#404B7B"/>
<defs>
<linearGradient id="paint0_linear" x1="179.478" y1="61.8906" x2="37.2066" y2="117.046" gradientUnits="userSpaceOnUse">
<stop stop-color="#2F80ED"/>
<stop offset="1" stop-color="#BB6BD9"/>
</linearGradient>
<linearGradient id="paint1_linear" x1="28.757" y1="58.9687" x2="3.79879" y2="64.3757" gradientUnits="userSpaceOnUse">
<stop stop-color="#2F80ED"/>
<stop offset="1" stop-color="#BB6BD9"/>
</linearGradient>
<linearGradient id="paint2_linear" x1="28.757" y1="150.969" x2="3.79879" y2="156.376" gradientUnits="userSpaceOnUse">
<stop stop-color="#2F80ED"/>
<stop offset="1" stop-color="#BB6BD9"/>
</linearGradient>
</defs>
</svg>
